<svg width="40" height="40" viewBox="0 0 40 40" fill="none" xmlns="http://www.w3.org/2000/svg">
<path d="M8.54686 25.1625L11.8844 3.77499C12 3.04687 12.9781 2.87187 13.3219 3.52499L16.9094 10.2375L8.54686 25.1625V25.1625ZM32.2781 30.3594L29.0937 10.6594C28.9969 10.0469 28.2312 9.79687 27.7906 10.2375L7.72186 30.3594L18.8281 36.5937C19.1718 36.7829 19.5577 36.882 19.95 36.882C20.3423 36.882 20.7282 36.7829 21.0719 36.5937L32.2781 30.3594V30.3594ZM23.2625 13.1719L20.6906 8.28124C20.4031 7.72499 19.6156 7.72499 19.3281 8.28124L8.03124 28.4219L23.2625 13.1719V13.1719Z" fill="#1e1e1e"/>
</svg>
