<svg width="40" height="40" viewBox="0 0 40 40" fill="none" xmlns="http://www.w3.org/2000/svg">
<path d="M14.8803 30.6625C8.88277 32.3381 18.5293 35.7997 26.1662 32.5278C24.9153 32.0416 24.0181 31.4806 24.0181 31.4806C20.6128 32.1244 19.0331 32.175 15.9418 31.8219C13.3906 31.5297 14.8803 30.6625 14.8803 30.6625V30.6625ZM25.2518 27.3938C20.7381 28.2622 18.1309 28.2344 14.8287 27.8938C12.2753 27.6297 13.9468 26.3922 13.9468 26.3922C7.34152 28.5847 17.624 31.0725 26.8559 28.3722C25.8746 28.0266 25.2518 27.3938 25.2518 27.3938V27.3938ZM28.789 8.46407C28.7893 8.46407 15.4356 11.7981 21.8131 19.1475C23.6956 21.3147 21.3193 23.2631 21.3193 23.2631C21.3193 23.2631 26.0971 20.7972 23.9034 17.7078C21.8537 14.8281 20.2825 13.3975 28.789 8.46407ZM31.9134 33.8216C31.9134 33.8216 33.0162 34.7309 30.6984 35.4338C26.2915 36.7688 12.3528 37.1713 8.48121 35.4872C7.09058 34.8816 9.69965 34.0419 10.5206 33.8647C11.3765 33.6794 11.8653 33.7131 11.8653 33.7131C10.3178 32.6234 1.86121 35.8538 7.5709 36.7803C23.14 39.3041 35.9512 35.6438 31.9134 33.8216V33.8216ZM26.5625 24.3425C27.3109 23.8319 28.3446 23.3884 28.3446 23.3884C28.3446 23.3884 25.3996 23.915 22.4656 24.1616C18.8737 24.4628 15.0209 24.5222 13.0868 24.2634C8.50808 23.6513 15.5971 21.9672 15.5971 21.9672C15.5971 21.9672 12.8434 21.7809 9.4584 23.4184C5.45465 25.3544 19.3618 26.2369 26.5625 24.3425ZM28.3153 29.0753C28.2815 29.1659 28.169 29.2678 28.169 29.2678C37.9418 26.6988 34.3487 20.2119 29.6759 21.8538C29.2659 21.9988 29.0509 22.3359 29.0509 22.3359C29.0509 22.3359 29.31 22.2316 29.8878 22.1109C32.25 21.6188 35.6343 25.2731 28.3153 29.0753ZM20.0565 21.8966C18.6146 18.6375 13.7253 15.7863 20.0587 10.7844C27.9559 4.55094 23.9037 0.495941 23.9037 0.495941C25.5381 6.93594 18.1378 8.88125 15.4665 12.8919C13.6475 15.6247 16.3593 18.5613 20.0565 21.8966V21.8966ZM28.5796 38.0678C22.5837 39.1966 15.1878 39.065 10.8025 38.3409C10.8025 38.3409 11.7006 39.0847 16.3168 39.3819C23.3406 39.8309 34.1293 39.1319 34.3843 35.8081C34.3846 35.8081 33.8937 37.0681 28.5796 38.0678Z" fill="#1e1e1e"/>
</svg>
