<svg width="40" height="40" viewBox="0 0 40 40" fill="none" xmlns="http://www.w3.org/2000/svg">
<path d="M35.2119 9.47938L21.4172 1.47782C20.5481 0.982817 19.4097 0.982817 18.5337 1.47782L4.63125 9.47938C3.73469 9.99532 3.125 10.965 3.125 12.0022V27.9841C3.125 29.0213 3.7475 29.9913 4.64438 30.51L8.30969 32.6C10.0681 33.4663 10.5553 33.4663 11.3553 33.4663C13.9597 33.4663 15.3122 31.8916 15.3122 29.145V13.3669C15.3125 13.1441 15.4516 12.8125 15.2325 12.8125H13.4756C13.2531 12.8125 12.8125 13.1441 12.8125 13.3666V29.1447C12.8125 30.3622 11.6825 31.5738 9.62438 30.5447L5.83625 28.3531C5.70438 28.2813 5.625 28.1366 5.625 27.9841V12.0022C5.625 11.8516 5.76969 11.7003 5.90344 11.6231L19.7716 3.63532C19.8396 3.59915 19.9156 3.58023 19.9927 3.58023C20.0698 3.58023 20.1457 3.59915 20.2137 3.63532L33.9522 11.6213C34.0838 11.7003 34.0628 11.8469 34.0628 12.0022V27.9841C34.0628 28.1366 34.0916 28.285 33.9619 28.3584L20.1703 36.3509C20.0522 36.4219 19.8984 36.4219 19.7687 36.3509L16.2322 34.2419C16.1256 34.18 15.9972 34.1578 15.8947 34.215C14.9119 34.7722 14.7294 34.8463 13.8075 35.1659C13.5803 35.245 13.2453 35.3822 13.935 35.7688L18.5594 38.5044C19.0008 38.7594 19.5017 38.8937 20.0116 38.8938C20.5234 38.8946 21.0264 38.7603 21.4697 38.5044L35.2122 30.51C36.1094 29.9875 36.5628 29.0213 36.5628 27.9841V12.0022C36.5625 10.965 36.1091 9.99782 35.2119 9.47938V9.47938ZM24.2897 25.4516C20.625 25.4516 19.8181 24.4406 19.5491 22.6184C19.5172 22.4222 19.3509 22.1875 19.1509 22.1875H17.3603C17.1388 22.1875 16.9603 22.4563 16.9603 22.6769C16.9603 25.01 18.2291 27.8369 24.2897 27.8369C28.6766 27.8369 31.1922 26.1322 31.1922 23.1153C31.1922 20.1241 29.1713 19.3391 24.9166 18.7759C20.6159 18.2075 20.1791 17.9203 20.1791 16.9128C20.1791 16.0822 20.5491 14.9744 23.7334 14.9744C26.5784 14.9744 27.6272 15.585 28.0588 17.5028C28.0959 17.6831 28.2606 17.8125 28.4466 17.8125H30.2447C30.3553 17.8125 30.4606 17.7678 30.5381 17.6888C30.6134 17.6038 30.6528 17.4972 30.6431 17.3828C30.3641 14.08 28.1703 12.5409 23.7331 12.5409C19.7856 12.5409 17.4312 14.2078 17.4312 17.0019C17.4312 20.0325 19.7741 20.87 23.5631 21.2447C28.0959 21.6891 28.4484 22.3516 28.4484 23.2431C28.4484 24.7919 27.2053 25.4516 24.2897 25.4516Z" fill="#1e1e1e"/>
</svg>
