<svg width="40" height="40" viewBox="0 0 40 40" fill="none" xmlns="http://www.w3.org/2000/svg">
<path d="M15.4157 19.375H24.5279C27.0644 19.375 29.0626 17.2288 29.0626 14.6816V5.99469C29.0626 3.52219 26.9901 1.66469 24.5141 1.25219C22.9473 0.991253 21.3282 0.872503 19.7682 0.880003C18.2088 0.88719 16.7644 1.02 15.4541 1.25219C11.5932 1.93375 10.9376 3.36188 10.9376 5.99469V9.375H20.0001V10.625H7.43007C4.77882 10.625 2.45694 12.2213 1.731 15.2534C0.893191 18.7284 0.856003 20.8531 1.731 24.4816C2.37944 27.1822 3.92788 29.0625 6.57944 29.0625H9.68757V24.985C9.68757 21.9734 12.3213 19.375 15.4157 19.375ZM14.8413 7.15313C13.8957 7.15313 13.1294 6.37844 13.1294 5.42032C13.1294 4.45813 13.8954 3.67625 14.8413 3.67625C15.7835 3.67625 16.5535 4.45813 16.5535 5.42032C16.5532 6.37844 15.7832 7.15313 14.8413 7.15313ZM38.2129 15.2534C37.5573 12.6134 36.3057 10.625 33.6507 10.625H30.3126V14.6816C30.3126 17.8222 27.5644 20.3125 24.5279 20.3125H15.4157C12.9194 20.3125 10.9376 22.6019 10.9376 25.1019V33.7894C10.9376 36.2613 13.0454 37.7156 15.4569 38.425C18.3451 39.2741 21.0801 39.4275 24.5354 38.425C26.8319 37.7597 29.0626 36.4216 29.0626 33.7894V30.3125H20.0001V29.0625H33.6507C36.3019 29.0625 37.2904 27.2575 38.2129 24.4813C39.1651 21.6234 39.1241 18.9191 38.2129 15.2534V15.2534ZM25.1019 32.6303C26.0479 32.6303 26.8141 33.405 26.8141 34.3638C26.8141 35.325 26.0482 36.1072 25.1019 36.1072C24.1598 36.1072 23.3901 35.3253 23.3901 34.3638C23.3901 33.405 24.1598 32.6303 25.1019 32.6303Z" fill="#1e1e1e"/>
</svg>
