<svg width="40" height="41" viewBox="0 0 40 41" fill="none" xmlns="http://www.w3.org/2000/svg">
<path d="M39.8676 5.92777L21.0776 39.5276C20.6897 40.2213 19.693 40.2254 19.2992 39.535L0.13663 5.93101C-0.292362 5.17872 0.35093 4.26748 1.20342 4.41986L20.0135 7.78206C20.1335 7.80351 20.2564 7.8033 20.3764 7.78144L38.7931 4.42468C39.6428 4.26982 40.2891 5.174 39.8676 5.92777Z" fill="url(#paint0_linear_36_46)"/>
<path d="M28.9738 0.00985998L15.0686 2.73452C14.8401 2.7793 14.6709 2.97298 14.6571 3.20542L13.8017 17.6518C13.7816 17.992 14.0941 18.2561 14.4262 18.1795L18.2976 17.2861C18.6598 17.2026 18.9871 17.5216 18.9126 17.8858L17.7625 23.5181C17.685 23.8972 18.0409 24.2213 18.4111 24.1089L20.8023 23.3824C21.173 23.2699 21.5292 23.5949 21.4507 23.9743L19.6229 32.8213C19.5085 33.3747 20.2446 33.6765 20.5516 33.202L20.7566 32.8851L32.0873 10.2727C32.2771 9.89413 31.9499 9.46242 31.534 9.54266L27.5491 10.3118C27.1746 10.384 26.856 10.0352 26.9617 9.66883L29.5626 0.652453C29.6684 0.285457 29.3487 -0.0635872 28.9738 0.00985998Z" fill="url(#paint1_linear_36_46)"/>
<defs>
<linearGradient id="paint0_linear_36_46" x1="-0.331239" y1="3.21905" x2="23.0544" y2="34.9786" gradientUnits="userSpaceOnUse">
<stop stop-color="#E0E0E0"/>
<stop offset="1"/>
</linearGradient>
<linearGradient id="paint1_linear_36_46" x1="18.9339" y1="0.7496" x2="23.1642" y2="29.7693" gradientUnits="userSpaceOnUse">
<stop stop-color="#EBEBEB"/>
<stop offset="0.0833333" stop-color="#C8C8C8"/>
<stop offset="1" stop-color="#414141"/>
</linearGradient>
</defs>
</svg>
